HIERARCHY
ROOT Hips
{
	OFFSET 0.000000 0.000000 0.000000
	CHANNELS 6 Xposition Yposition Zposition Zrotation Yrotation Xrotation 
	JOINT LHipJoint
	{
		OFFSET 0.000000 0.000000 0.000000
		CHANNELS 3 Zrotation Yrotation Xrotation
		JOINT LeftUpLeg
		{
			OFFSET 1.363060 -1.794630 0.839290
			CHANNELS 3 Zrotation Yrotation Xrotation
			JOINT LeftLeg
			{
				OFFSET 2.448110 -6.726130 0.000000
				CHANNELS 3 Zrotation Yrotation Xrotation
				JOINT LeftFoot
				{
					OFFSET 2.562200 -7.039590 0.000000
					CHANNELS 3 Zrotation Yrotation Xrotation
					JOINT LeftToeBase
					{
						OFFSET 0.157640 -0.433110 2.322550
						CHANNELS 3 Zrotation Yrotation Xrotation
						End Site
						{
							OFFSET 0.000000 0.000000 0.000000
						}
					}
				}
			}
		}
	}
	JOINT RHipJoint
	{
		OFFSET 0.000000 0.000000 0.000000
		CHANNELS 3 Zrotation Yrotation Xrotation
		JOINT RightUpLeg
		{
			OFFSET -1.305520 -1.794630 0.839290
			CHANNELS 3 Zrotation Yrotation Xrotation
			JOINT RightLeg
			{
				OFFSET -2.542530 -6.985550 0.000000
				CHANNELS 3 Zrotation Yrotation Xrotation
				JOINT RightFoot
				{
					OFFSET -2.568260 -7.056230 0.000000
					CHANNELS 3 Zrotation Yrotation Xrotation
					JOINT RightToeBase
					{
						OFFSET -0.164730 -0.452590 2.363150
						CHANNELS 3 Zrotation Yrotation Xrotation
						End Site
						{
							OFFSET 0.000000 0.000000 0.000000
						}
					}
				}
			}
		}
	}
	JOINT LowerBack
	{
		OFFSET 0.000000 0.000000 0.000000
		CHANNELS 3 Zrotation Yrotation Xrotation
		JOINT Spine
		{
			OFFSET 0.028270 2.035590 -0.193380
			CHANNELS 3 Zrotation Yrotation Xrotation
			JOINT Spine1
			{
				OFFSET 0.056720 2.048850 -0.042750
				CHANNELS 3 Zrotation Yrotation Xrotation
				JOINT Neck
				{
					OFFSET 0.000000 0.000000 0.000000
					CHANNELS 3 Zrotation Yrotation Xrotation
					JOINT Neck1
					{
						OFFSET -0.054170 1.746240 0.172020
						CHANNELS 3 Zrotation Yrotation Xrotation
						JOINT Head
						{
							OFFSET 0.104070 1.761360 -0.123970
							CHANNELS 3 Zrotation Yrotation Xrotation
							End Site
							{
								OFFSET 0.000000 0.000000 0.000000
							}
						}
					}
				}
				JOINT LeftShoulder
				{
					OFFSET 0.000000 0.000000 0.000000
					CHANNELS 3 Zrotation Yrotation Xrotation
					JOINT LeftArm
					{
						OFFSET 3.362410 1.200890 -0.311210
						CHANNELS 3 Zrotation Yrotation Xrotation
						JOINT LeftForeArm
						{
							OFFSET 4.983000 -0.000000 -0.000000
							CHANNELS 3 Zrotation Yrotation Xrotation
							JOINT LeftHand
							{
								OFFSET 3.483560 -0.000000 -0.000000
								CHANNELS 3 Zrotation Yrotation Xrotation
								JOINT LeftFingerBase
								{
									OFFSET 0.000000 0.000000 0.000000
									CHANNELS 3 Zrotation Yrotation Xrotation
									JOINT LeftHandIndex1
									{
										OFFSET 0.715260 -0.000000 -0.000000
										CHANNELS 3 Zrotation Yrotation Xrotation
										End Site
										{
											OFFSET 0.000000 0.000000 0.000000
										}
									}
								}
								JOINT LThumb
								{
									OFFSET 0.000000 0.000000 0.000000
									CHANNELS 3 Zrotation Yrotation Xrotation
									End Site
									{
										OFFSET 0.000000 0.000000 0.000000
									}
								}
							}
						}
					}
				}
				JOINT RightShoulder
				{
					OFFSET 0.000000 0.000000 0.000000
					CHANNELS 3 Zrotation Yrotation Xrotation
					JOINT RightArm
					{
						OFFSET -3.136600 1.374050 -0.404650
						CHANNELS 3 Zrotation Yrotation Xrotation
						JOINT RightForeArm
						{
							OFFSET -5.241900 -0.000000 -0.000000
							CHANNELS 3 Zrotation Yrotation Xrotation
							JOINT RightHand
							{
								OFFSET -3.444170 -0.000000 -0.000000
								CHANNELS 3 Zrotation Yrotation Xrotation
								JOINT RightFingerBase
								{
									OFFSET 0.000000 0.000000 0.000000
									CHANNELS 3 Zrotation Yrotation Xrotation
									JOINT RightHandIndex1
									{
										OFFSET -0.622530 -0.000000 -0.000000
										CHANNELS 3 Zrotation Yrotation Xrotation
										End Site
										{
											OFFSET 0.000000 0.000000 0.000000
										}
									}
								}
								JOINT RThumb
								{
									OFFSET 0.000000 0.000000 0.000000
									CHANNELS 3 Zrotation Yrotation Xrotation
									End Site
									{
										OFFSET 0.000000 0.000000 0.000000
									}
								}
							}
						}
					}
				}
			}
		}
	}
}
MOTION
Frames: 8
Frame Time: 0.008333
-4.716622 16.793941 -1.786408 52.491166 77.996767 71.408442 -9.903362 5.045207 0.554541 -12.519815 11.922200 -9.054800 -2.562594 0.726799 21.145116 0.109736 0.247707 5.164350 0.196300 -0.000000 -74.204000 9.533879 -0.640153 3.994562 14.923785 -1.873446 -46.206493 2.608244 0.262590 15.778221 -3.155802 -10.626355 -8.999144 178.905600 -0.000000 -5.957700 0.075418 -3.272022 -5.127316 -0.463579 -3.432984 -3.554249 -6.246612 -3.369996 1.097154 4.203984 -14.618875 -7.414248 -3.879423 -0.297639 0.043252 0.000000 0.000000 0.000000 0.225897 7.921838 0.486523 -45.154506 -15.169828 11.055815 -178.897724 -76.489774 179.958569 5.803158 1.201291 0.044609 -0.263146 0.436212 -0.000000 0.000000 0.000000 0.000000 0.000000 0.000000 0.000000 9.897671 -10.663149 -0.770235 65.713383 -2.239851 18.655411 179.830616 89.636731 -179.967841 7.292817 2.231424 0.163243 -0.116257 -0.280809 -0.000000 0.000000 0.000000 0.000000 0.000000 0.000000 0.000000 
-4.548947 16.735900 -1.727779 50.712302 77.428077 69.369053 -9.944817 5.187484 0.557160 -12.349332 12.479746 -8.946032 -2.485888 0.842470 22.487300 0.067833 -0.416307 5.746556 0.060400 0.000000 -76.237500 9.550636 -0.628473 4.025768 14.482688 -1.299519 -47.194114 2.423498 -0.235240 20.011109 -3.227519 -10.245041 -11.099519 179.443300 -0.000000 -10.788200 0.220117 -3.150957 -5.218373 -0.454890 -3.329587 -3.574645 -6.296880 -3.266168 1.097994 3.963663 -14.328017 -7.324399 -3.968347 -0.305361 0.061396 0.000000 0.000000 0.000000 -0.274737 8.246343 0.491752 -45.042294 -14.979248 10.197682 -178.898203 -76.731961 179.958586 5.931051 0.950696 0.031884 -0.267766 0.438474 -0.000000 0.000000 0.000000 0.000000 0.000000 0.000000 0.000000 9.988603 -10.284524 -0.874964 66.287673 -2.395624 16.785708 -0.129068 89.683327 0.031444 7.087147 2.573531 0.180500 -0.111944 -0.286323 -0.000000 0.000000 0.000000 0.000000 0.000000 0.000000 0.000000 
-4.385476 16.686843 -1.669440 48.792140 76.895245 67.149033 -10.017527 5.310621 0.537519 -12.042414 13.073724 -8.906009 -2.379686 0.970428 23.973416 0.027475 -1.212831 6.560167 -0.120700 0.000000 -77.988799 9.567744 -0.614602 4.024986 14.094627 -0.755712 -47.913061 2.243090 -0.686059 23.973619 -3.254217 -9.836465 -12.987607 179.919400 -0.000000 -14.435200 0.415432 -3.035149 -5.246024 -0.433399 -3.233911 -3.585089 -6.337455 -3.171148 1.094147 3.752252 -13.950632 -7.199025 -4.059850 -0.313386 0.088036 0.000000 0.000000 0.000000 -0.726107 8.590379 0.485490 -45.265516 -14.721493 9.338762 -178.915922 -77.175348 179.958253 6.110979 0.729139 0.020455 -0.272761 0.439169 -0.000000 0.000000 0.000000 0.000000 0.000000 0.000000 0.000000 10.108423 -9.844645 -0.983639 66.976743 -2.444282 14.723245 -0.074622 88.741004 0.030335 6.798044 2.980722 0.198163 -0.105861 -0.292146 -0.000000 0.000000 0.000000 0.000000 0.000000 0.000000 0.000000 
-4.226505 16.648056 -1.611112 46.781522 76.421365 64.813812 -10.124126 5.407227 0.500009 -11.583137 13.659809 -8.953472 -2.241917 1.105830 25.603877 -0.004241 -2.123126 7.588934 -0.357701 -0.000000 -79.270500 9.572547 -0.612042 3.996681 13.827316 -0.262611 -48.305017 2.087360 -1.060605 27.439306 -3.250267 -9.436193 -14.650662 -179.674500 0.000000 -17.034500 0.667251 -2.931862 -5.221168 -0.396700 -3.153650 -3.587426 -6.366970 -3.092652 1.087726 3.585073 -13.502531 -7.040565 -4.151826 -0.321516 0.123057 0.000000 0.000000 0.000000 -1.114413 8.942355 0.465120 -45.839166 -14.385811 8.482487 -178.952765 -77.811622 179.957439 6.352706 0.562541 0.011521 -0.278077 0.437713 -0.000000 0.000000 0.000000 0.000000 0.000000 0.000000 0.000000 10.264930 -9.367862 -1.096052 67.767337 -2.363788 12.491524 -0.008160 87.548356 0.028659 6.377323 3.435826 0.212034 -0.097310 -0.298037 -0.000000 0.000000 0.000000 0.000000 0.000000 0.000000 0.000000 
-4.072160 16.620110 -1.552350 44.741706 76.021119 62.442068 -10.262146 5.471840 0.453509 -10.978262 14.183925 -9.106090 -2.074313 1.242525 27.370306 -0.019757 -3.104897 8.791695 -0.655100 -0.000000 -79.903600 9.554930 -0.630979 3.944989 13.723872 0.161402 -48.359020 1.970217 -1.348491 30.280962 -3.232580 -9.073774 -16.102415 -179.334400 -0.000001 -18.731800 0.970010 -2.848348 -5.160751 -0.345112 -3.095699 -3.584052 -6.384726 -3.037497 1.082310 3.477514 -13.010350 -6.855472 -4.241277 -0.329480 0.165388 0.000000 0.000000 0.000000 -1.430144 9.291921 0.428154 -46.752586 -13.968781 7.630257 -179.010044 -78.626053 179.956029 6.665581 0.471838 0.006677 -0.283574 0.433734 -0.000000 0.000000 0.000000 0.000000 0.000000 0.000000 0.000000 10.464938 -8.887845 -1.212584 68.639503 -2.135473 10.134318 0.066908 86.133413 0.026194 5.763071 3.920178 0.216712 -0.085525 -0.303848 -0.000000 0.000000 0.000000 0.000000 0.000000 0.000000 0.000000 
-3.922482 16.602805 -1.492424 42.758020 75.698638 60.132750 -10.422004 5.502015 0.408982 -10.260605 14.587368 -9.369034 -1.882617 1.374540 29.251470 -0.013199 -4.090430 10.105495 -1.005300 0.000000 -79.739000 9.512179 -0.673782 3.871161 13.792336 0.491318 -48.097285 1.896792 -1.552639 32.459164 -3.214828 -8.769133 -17.363807 -179.050600 0.000000 -19.655200 1.301177 -2.792152 -5.080653 -0.282919 -3.065908 -3.576955 -6.391195 -3.011400 1.080701 3.443848 -12.504818 -6.651311 -4.325023 -0.337011 0.213675 0.000000 0.000000 0.000000 -1.664036 9.624615 0.372957 -47.970871 -13.469016 6.781051 -179.087931 -79.595752 179.953931 7.057666 0.472001 0.007320 -0.288991 0.427094 -0.000000 0.000000 0.000000 0.000000 0.000000 0.000000 0.000000 10.714350 -8.440456 -1.333804 69.571056 -1.752450 7.710761 0.145919 84.540430 0.022673 4.883718 4.413725 0.205296 -0.069806 -0.309528 0.000000 0.000000 0.000000 0.000000 0.000000 0.000000 0.000000 
-3.777474 16.595371 -1.430473 40.925632 75.452382 57.988915 -10.590731 5.497965 0.376050 -9.476330 14.820870 -9.738611 -1.675232 1.497633 31.220793 0.017534 -4.997016 11.449748 -1.385000 -0.000000 -78.678500 9.447076 -0.736809 3.775985 14.012939 0.705651 -47.555595 1.865046 -1.681099 33.986407 -3.206123 -8.536435 -18.449397 -178.812800 0.000001 -19.925700 1.630503 -2.769453 -4.993689 -0.216438 -3.068221 -3.567501 -6.387994 -3.018152 1.084883 3.495052 -12.018082 -6.436930 -4.399969 -0.343863 0.266150 0.000000 0.000000 0.000000 -1.811216 9.925017 0.299515 -49.434652 -12.889530 5.933931 -179.184968 -80.691110 179.951100 7.535166 0.569657 0.014842 -0.294038 0.417912 0.000000 0.000000 0.000000 0.000000 0.000000 0.000000 0.000000 11.016763 -8.060199 -1.459913 70.537444 -1.220400 5.292762 0.223211 82.826544 0.017786 3.664851 4.897859 0.170186 -0.049592 -0.315092 0.000000 0.000000 0.000000 0.000000 0.000000 0.000000 0.000000 
-3.637075 16.596660 -1.365730 39.338425 75.277111 56.107849 -10.754390 5.462377 0.361790 -8.676973 14.850311 -10.205208 -1.461309 1.609810 33.248654 0.070463 -5.733704 12.736804 -1.755300 -0.000001 -76.716100 9.366627 -0.812804 3.661035 14.345878 0.790670 -46.775331 1.868300 -1.743397 34.908282 -3.210507 -8.381996 -19.366279 -178.612300 -0.000000 -19.666000 1.925385 -2.784773 -4.909456 -0.152740 -3.104855 -3.556182 -6.377798 -3.059786 1.097317 3.637258 -11.582361 -6.223472 -4.463360 -0.349812 0.320255 0.000000 0.000000 0.000000 -1.875143 10.183248 0.209825 -51.065882 -12.245038 5.093666 -179.297694 -81.879566 179.947574 8.099321 0.763045 0.030638 -0.298478 0.406516 -0.000000 0.000000 0.000000 0.000000 0.000000 0.000000 0.000000 11.373175 -7.778716 -1.590662 71.513413 -0.555596 2.963004 0.292689 81.056301 0.011204 2.038873 5.353860 0.103378 -0.024522 -0.320486 0.000000 0.000000 0.000000 0.000000 0.000000 0.000000 0.000000 
